ISO-10303-21;
HEADER;
/* DFN-4-1EP_1x1mm_P0.65mm_EP0.5x0.5mm.step 3D STEP model for use in ECAD systems
 * Copyright (C) 2026, KiCAD
 *
 * This work is licensed under the
 * [Creative Commons CC-BY-SA 4.0 License](https://creativecommons.org/licenses/by-sa/4.0/legalcode),
 * with the following exception:
 *
 * To the extent that the creation of electronic designs that use 'Licensed Material' can be
 * considered to be 'Adapted Material', then the copyright holder waives article 3 of the license
 * with respect to these designs and any generated files which use data provided as part of the
 * 'Licensed Material'.
 *
 * You are free to use the library data in your own projects without the obligation to share your
 * project files under this or any other license agreement. However, if you wish to distribute
 * these libraries, or parts thereof (including in modified form) as a collection then the exception
 * above does not apply. Please refer to
 * https://gitlab.com/kicad/libraries/kicad-packages3D/-/blob/master/LICENSE.md for further clarification
 * of the exception.
 *
 * Disclaimer of Warranties and Limitation of Liability.
 * These libraries are provided in the hope that they will be useful, but are provided without warranty of any kind, express or implied.
 * USE 3D CAD DATA AT YOUR OWN RISK
 * DO NOT RELY UPON ANY INFORMATION FOUND HERE WITHOUT INDEPENDENT VERIFICATION.
 */

FILE_DESCRIPTION(
/* description */ ('model of DFN-4-1EP_1x1mm_P0.65mm_EP0.5x0.5mm'),
/* implementation_level */ '2;1');

FILE_NAME(
/* name */ 'DFN-4-1EP_1x1mm_P0.65mm_EP0.5x0.5mm.step',
/* time_stamp */ '1970-01-01T00:00:00',
/* author */ ('KiCAD','kicad'),
/* organization */ ('OCCT'),
/* preprocessor_version */ '',
/* originating_system */ 'KiCAD',
/* authorisation */ '');

FILE_SCHEMA(('AUTOMOTIVE_DESIGN { 1 0 10303 214 1 1 1 1 }'));
ENDSEC;

DATA;
#1=APPLICATION_PROTOCOL_DEFINITION('international standard','automotive_design',2000,#2);
#2=APPLICATION_CONTEXT('core data for automotive mechanical design processes');
#3=SHAPE_DEFINITION_REPRESENTATION(#4,#10);
#4=PRODUCT_DEFINITION_SHAPE('','',#5);
#5=PRODUCT_DEFINITION('design','',#6,#9);
#6=PRODUCT_DEFINITION_FORMATION('','',#7);
#7=PRODUCT('DFN-4-1EP_1x1mm_P0.65mm_EP0.5x0.5mm','DFN-4-1EP_1x1mm_P0.65mm_EP0.5x0.5mm','',(#8));
#8=PRODUCT_CONTEXT('',#2,'mechanical');
#9=PRODUCT_DEFINITION_CONTEXT('part definition',#2,'design');
#10=ADVANCED_BREP_SHAPE_REPRESENTATION('',(#11,#15),#732);
#11=AXIS2_PLACEMENT_3D('',#12,#13,#14);
#12=CARTESIAN_POINT('',(0.,0.,0.));
#13=DIRECTION('',(0.,0.,1.));
#14=DIRECTION('',(1.,0.,-0.));
#15=MANIFOLD_SOLID_BREP('',#16);
#16=CLOSED_SHELL('',(#17,#46,#110,#132,#188,#325,#342,#356,#363,#369,#386,#400,#414,#428,#443,#457,#472,#482,#497,#508,#523,#538,#552,#567,#583,#594,#608,#618,#637,#652,#667,#678,#689,#701,#712,#723));
#17=ADVANCED_FACE('',(#18),#43,.F.);
#18=FACE_BOUND('',#19,.F.);
#19=EDGE_LOOP('',(#20,#28,#35,#40));
#20=ORIENTED_EDGE('',*,*,#21,.F.);
#21=EDGE_CURVE('',#22,#24,#26,.T.);
#22=VERTEX_POINT('',#23);
#23=CARTESIAN_POINT('',(-0.5,-0.5,2.E-02));
#24=VERTEX_POINT('',#25);
#25=CARTESIAN_POINT('',(-0.5,-0.5,0.57));
#26=LINE('',#23,#27);
#27=VECTOR('',#13,1.);
#28=ORIENTED_EDGE('',*,*,#29,.T.);
#29=EDGE_CURVE('',#22,#30,#32,.T.);
#30=VERTEX_POINT('',#31);
#31=CARTESIAN_POINT('',(-0.5,0.5,2.E-02));
#32=LINE('',#23,#33);
#33=VECTOR('',#34,1.);
#34=DIRECTION('',(0.,1.,0.));
#35=ORIENTED_EDGE('',*,*,#36,.T.);
#36=EDGE_CURVE('',#30,#37,#39,.T.);
#37=VERTEX_POINT('',#38);
#38=CARTESIAN_POINT('',(-0.5,0.5,0.57));
#39=LINE('',#31,#27);
#40=ORIENTED_EDGE('',*,*,#41,.F.);
#41=EDGE_CURVE('',#24,#37,#42,.T.);
#42=LINE('',#25,#33);
#43=PLANE('',#44);
#44=AXIS2_PLACEMENT_3D('',#23,#45,#13);
#45=DIRECTION('',(1.,0.,0.));
#46=ADVANCED_FACE('',(#47),#108,.F.);
#47=FACE_BOUND('',#48,.F.);
#48=EDGE_LOOP('',(#49,#55,#56,#61,#66,#70,#76,#83,#89,#93,#99,#104));
#49=ORIENTED_EDGE('',*,*,#50,.F.);
#50=EDGE_CURVE('',#22,#51,#53,.T.);
#51=VERTEX_POINT('',#52);
#52=CARTESIAN_POINT('',(-0.4375,-0.5,2.E-02));
#53=LINE('',#23,#54);
#54=VECTOR('',#45,1.);
#55=ORIENTED_EDGE('',*,*,#21,.T.);
#56=ORIENTED_EDGE('',*,*,#57,.T.);
#57=EDGE_CURVE('',#24,#58,#60,.T.);
#58=VERTEX_POINT('',#59);
#59=CARTESIAN_POINT('',(0.5,-0.5,0.57));
#60=LINE('',#25,#54);
#61=ORIENTED_EDGE('',*,*,#62,.F.);
#62=EDGE_CURVE('',#63,#58,#65,.T.);
#63=VERTEX_POINT('',#64);
#64=CARTESIAN_POINT('',(0.5,-0.5,2.E-02));
#65=LINE('',#64,#27);
#66=ORIENTED_EDGE('',*,*,#67,.F.);
#67=EDGE_CURVE('',#68,#63,#53,.T.);
#68=VERTEX_POINT('',#69);
#69=CARTESIAN_POINT('',(0.4375,-0.5,2.E-02));
#70=ORIENTED_EDGE('',*,*,#71,.T.);
#71=EDGE_CURVE('',#68,#72,#74,.T.);
#72=VERTEX_POINT('',#73);
#73=CARTESIAN_POINT('',(0.4375,-0.5,2.5E-02));
#74=LINE('',#75,#27);
#75=CARTESIAN_POINT('',(0.4375,-0.5,0.));
#76=ORIENTED_EDGE('',*,*,#77,.T.);
#77=EDGE_CURVE('',#72,#78,#80,.T.);
#78=VERTEX_POINT('',#79);
#79=CARTESIAN_POINT('',(0.2125,-0.5,2.5E-02));
#80=LINE('',#73,#81);
#81=VECTOR('',#82,1.);
#82=DIRECTION('',(-1.,0.,0.));
#83=ORIENTED_EDGE('',*,*,#84,.F.);
#84=EDGE_CURVE('',#85,#78,#87,.T.);
#85=VERTEX_POINT('',#86);
#86=CARTESIAN_POINT('',(0.2125,-0.5,2.E-02));
#87=LINE('',#88,#27);
#88=CARTESIAN_POINT('',(0.2125,-0.5,0.));
#89=ORIENTED_EDGE('',*,*,#90,.F.);
#90=EDGE_CURVE('',#91,#85,#53,.T.);
#91=VERTEX_POINT('',#92);
#92=CARTESIAN_POINT('',(-0.2125,-0.5,2.E-02));
#93=ORIENTED_EDGE('',*,*,#94,.T.);
#94=EDGE_CURVE('',#91,#95,#97,.T.);
#95=VERTEX_POINT('',#96);
#96=CARTESIAN_POINT('',(-0.2125,-0.5,2.5E-02));
#97=LINE('',#98,#27);
#98=CARTESIAN_POINT('',(-0.2125,-0.5,0.));
#99=ORIENTED_EDGE('',*,*,#100,.F.);
#100=EDGE_CURVE('',#101,#95,#103,.T.);
#101=VERTEX_POINT('',#102);
#102=CARTESIAN_POINT('',(-0.4375,-0.5,2.5E-02));
#103=LINE('',#102,#54);
#104=ORIENTED_EDGE('',*,*,#105,.F.);
#105=EDGE_CURVE('',#51,#101,#106,.T.);
#106=LINE('',#107,#27);
#107=CARTESIAN_POINT('',(-0.4375,-0.5,0.));
#108=PLANE('',#109);
#109=AXIS2_PLACEMENT_3D('',#23,#34,#13);
#110=ADVANCED_FACE('',(#111,#121),#130,.T.);
#111=FACE_BOUND('',#112,.T.);
#112=EDGE_LOOP('',(#40,#56,#113,#118));
#113=ORIENTED_EDGE('',*,*,#114,.T.);
#114=EDGE_CURVE('',#58,#115,#117,.T.);
#115=VERTEX_POINT('',#116);
#116=CARTESIAN_POINT('',(0.5,0.5,0.57));
#117=LINE('',#59,#33);
#118=ORIENTED_EDGE('',*,*,#119,.F.);
#119=EDGE_CURVE('',#37,#115,#120,.T.);
#120=LINE('',#38,#54);
#121=FACE_BOUND('',#122,.T.);
#122=EDGE_LOOP('',(#123));
#123=ORIENTED_EDGE('',*,*,#124,.F.);
#124=EDGE_CURVE('',#125,#125,#127,.T.);
#125=VERTEX_POINT('',#126);
#126=CARTESIAN_POINT('',(-0.35,0.4,0.57));
#127=CIRCLE('',#128,5.E-02);
#128=AXIS2_PLACEMENT_3D('',#129,#13,#45);
#129=CARTESIAN_POINT('',(-0.4,0.4,0.57));
#130=PLANE('',#131);
#131=AXIS2_PLACEMENT_3D('',#25,#13,#45);
#132=ADVANCED_FACE('',(#133),#186,.T.);
#133=FACE_BOUND('',#134,.T.);
#134=EDGE_LOOP('',(#135,#35,#140,#141,#146,#150,#156,#161,#167,#171,#177,#182));
#135=ORIENTED_EDGE('',*,*,#136,.F.);
#136=EDGE_CURVE('',#30,#137,#139,.T.);
#137=VERTEX_POINT('',#138);
#138=CARTESIAN_POINT('',(-0.4375,0.5,2.E-02));
#139=LINE('',#31,#54);
#140=ORIENTED_EDGE('',*,*,#119,.T.);
#141=ORIENTED_EDGE('',*,*,#142,.F.);
#142=EDGE_CURVE('',#143,#115,#145,.T.);
#143=VERTEX_POINT('',#144);
#144=CARTESIAN_POINT('',(0.5,0.5,2.E-02));
#145=LINE('',#144,#27);
#146=ORIENTED_EDGE('',*,*,#147,.F.);
#147=EDGE_CURVE('',#148,#143,#139,.T.);
#148=VERTEX_POINT('',#149);
#149=CARTESIAN_POINT('',(0.4375,0.5,2.E-02));
#150=ORIENTED_EDGE('',*,*,#151,.T.);
#151=EDGE_CURVE('',#148,#152,#154,.T.);
#152=VERTEX_POINT('',#153);
#153=CARTESIAN_POINT('',(0.4375,0.5,2.5E-02));
#154=LINE('',#155,#27);
#155=CARTESIAN_POINT('',(0.4375,0.5,0.));
#156=ORIENTED_EDGE('',*,*,#157,.T.);
#157=EDGE_CURVE('',#152,#158,#160,.T.);
#158=VERTEX_POINT('',#159);
#159=CARTESIAN_POINT('',(0.2125,0.5,2.5E-02));
#160=LINE('',#153,#81);
#161=ORIENTED_EDGE('',*,*,#162,.F.);
#162=EDGE_CURVE('',#163,#158,#165,.T.);
#163=VERTEX_POINT('',#164);
#164=CARTESIAN_POINT('',(0.2125,0.5,2.E-02));
#165=LINE('',#166,#27);
#166=CARTESIAN_POINT('',(0.2125,0.5,0.));
#167=ORIENTED_EDGE('',*,*,#168,.F.);
#168=EDGE_CURVE('',#169,#163,#139,.T.);
#169=VERTEX_POINT('',#170);
#170=CARTESIAN_POINT('',(-0.2125,0.5,2.E-02));
#171=ORIENTED_EDGE('',*,*,#172,.T.);
#172=EDGE_CURVE('',#169,#173,#175,.T.);
#173=VERTEX_POINT('',#174);
#174=CARTESIAN_POINT('',(-0.2125,0.5,2.5E-02));
#175=LINE('',#176,#27);
#176=CARTESIAN_POINT('',(-0.2125,0.5,0.));
#177=ORIENTED_EDGE('',*,*,#178,.F.);
#178=EDGE_CURVE('',#179,#173,#181,.T.);
#179=VERTEX_POINT('',#180);
#180=CARTESIAN_POINT('',(-0.4375,0.5,2.5E-02));
#181=LINE('',#180,#54);
#182=ORIENTED_EDGE('',*,*,#183,.F.);
#183=EDGE_CURVE('',#137,#179,#184,.T.);
#184=LINE('',#185,#27);
#185=CARTESIAN_POINT('',(-0.4375,0.5,0.));
#186=PLANE('',#187);
#187=AXIS2_PLACEMENT_3D('',#31,#34,#13);
#188=ADVANCED_FACE('',(#189,#297),#323,.F.);
#189=FACE_BOUND('',#190,.F.);
#190=EDGE_LOOP('',(#135,#191,#192,#193,#201,#208,#216,#221,#222,#227,#235,#241,#245,#246,#146,#249,#255,#261,#269,#167,#273,#279,#287,#293));
#191=ORIENTED_EDGE('',*,*,#29,.F.);
#192=ORIENTED_EDGE('',*,*,#50,.T.);
#193=ORIENTED_EDGE('',*,*,#194,.T.);
#194=EDGE_CURVE('',#51,#195,#197,.T.);
#195=VERTEX_POINT('',#196);
#196=CARTESIAN_POINT('',(-0.4375,-0.25,2.E-02));
#197=LINE('',#198,#199);
#198=CARTESIAN_POINT('',(-0.4375,-0.375,2.E-02));
#199=VECTOR('',#200,1.);
#200=DIRECTION('',(-0.,1.,0.));
#201=ORIENTED_EDGE('',*,*,#202,.T.);
#202=EDGE_CURVE('',#195,#203,#205,.T.);
#203=VERTEX_POINT('',#204);
#204=CARTESIAN_POINT('',(-0.3925,-0.25,2.E-02));
#205=LINE('',#206,#207);
#206=CARTESIAN_POINT('',(-0.44625,-0.25,2.E-02));
#207=VECTOR('',#14,1.);
#208=ORIENTED_EDGE('',*,*,#209,.T.);
#209=EDGE_CURVE('',#203,#210,#212,.T.);
#210=VERTEX_POINT('',#211);
#211=CARTESIAN_POINT('',(-0.2125,-0.43,2.E-02));
#212=LINE('',#213,#214);
#213=CARTESIAN_POINT('',(-0.266875,-0.375625,2.E-02));
#214=VECTOR('',#215,1.);
#215=DIRECTION('',(0.707106781187,-0.707106781187,0.));
#216=ORIENTED_EDGE('',*,*,#217,.T.);
#217=EDGE_CURVE('',#210,#91,#218,.T.);
#218=LINE('',#92,#219);
#219=VECTOR('',#220,1.);
#220=DIRECTION('',(0.,-1.,0.));
#221=ORIENTED_EDGE('',*,*,#90,.T.);
#222=ORIENTED_EDGE('',*,*,#223,.F.);
#223=EDGE_CURVE('',#224,#85,#226,.T.);
#224=VERTEX_POINT('',#225);
#225=CARTESIAN_POINT('',(0.2125,-0.43,2.E-02));
#226=LINE('',#86,#219);
#227=ORIENTED_EDGE('',*,*,#228,.F.);
#228=EDGE_CURVE('',#229,#224,#231,.T.);
#229=VERTEX_POINT('',#230);
#230=CARTESIAN_POINT('',(0.3925,-0.25,2.E-02));
#231=LINE('',#232,#233);
#232=CARTESIAN_POINT('',(1.6875E-02,-0.625625,2.E-02));
#233=VECTOR('',#234,1.);
#234=DIRECTION('',(-0.707106781187,-0.707106781187,0.));
#235=ORIENTED_EDGE('',*,*,#236,.F.);
#236=EDGE_CURVE('',#237,#229,#239,.T.);
#237=VERTEX_POINT('',#238);
#238=CARTESIAN_POINT('',(0.4375,-0.25,2.E-02));
#239=LINE('',#240,#81);
#240=CARTESIAN_POINT('',(-5.375E-02,-0.25,2.E-02));
#241=ORIENTED_EDGE('',*,*,#242,.F.);
#242=EDGE_CURVE('',#68,#237,#243,.T.);
#243=LINE('',#244,#199);
#244=CARTESIAN_POINT('',(0.4375,-0.375,2.E-02));
#245=ORIENTED_EDGE('',*,*,#67,.T.);
#246=ORIENTED_EDGE('',*,*,#247,.T.);
#247=EDGE_CURVE('',#63,#143,#248,.T.);
#248=LINE('',#64,#33);
#249=ORIENTED_EDGE('',*,*,#250,.T.);
#250=EDGE_CURVE('',#148,#251,#253,.T.);
#251=VERTEX_POINT('',#252);
#252=CARTESIAN_POINT('',(0.4375,0.25,2.E-02));
#253=LINE('',#254,#219);
#254=CARTESIAN_POINT('',(0.4375,-0.125,2.E-02));
#255=ORIENTED_EDGE('',*,*,#256,.T.);
#256=EDGE_CURVE('',#251,#257,#259,.T.);
#257=VERTEX_POINT('',#258);
#258=CARTESIAN_POINT('',(0.3925,0.25,2.E-02));
#259=LINE('',#260,#81);
#260=CARTESIAN_POINT('',(-5.375E-02,0.25,2.E-02));
#261=ORIENTED_EDGE('',*,*,#262,.T.);
#262=EDGE_CURVE('',#257,#263,#265,.T.);
#263=VERTEX_POINT('',#264);
#264=CARTESIAN_POINT('',(0.2125,0.43,2.E-02));
#265=LINE('',#266,#267);
#266=CARTESIAN_POINT('',(0.266875,0.375625,2.E-02));
#267=VECTOR('',#268,1.);
#268=DIRECTION('',(-0.707106781187,0.707106781187,0.));
#269=ORIENTED_EDGE('',*,*,#270,.T.);
#270=EDGE_CURVE('',#263,#163,#271,.T.);
#271=LINE('',#272,#199);
#272=CARTESIAN_POINT('',(0.2125,0.,2.E-02));
#273=ORIENTED_EDGE('',*,*,#274,.F.);
#274=EDGE_CURVE('',#275,#169,#277,.T.);
#275=VERTEX_POINT('',#276);
#276=CARTESIAN_POINT('',(-0.2125,0.43,2.E-02));
#277=LINE('',#278,#199);
#278=CARTESIAN_POINT('',(-0.2125,0.,2.E-02));
#279=ORIENTED_EDGE('',*,*,#280,.F.);
#280=EDGE_CURVE('',#281,#275,#283,.T.);
#281=VERTEX_POINT('',#282);
#282=CARTESIAN_POINT('',(-0.3925,0.25,2.E-02));
#283=LINE('',#284,#285);
#284=CARTESIAN_POINT('',(-0.516875,0.125625,2.E-02));
#285=VECTOR('',#286,1.);
#286=DIRECTION('',(0.707106781187,0.707106781187,-0.));
#287=ORIENTED_EDGE('',*,*,#288,.F.);
#288=EDGE_CURVE('',#289,#281,#291,.T.);
#289=VERTEX_POINT('',#290);
#290=CARTESIAN_POINT('',(-0.4375,0.25,2.E-02));
#291=LINE('',#292,#207);
#292=CARTESIAN_POINT('',(-0.44625,0.25,2.E-02));
#293=ORIENTED_EDGE('',*,*,#294,.F.);
#294=EDGE_CURVE('',#137,#289,#295,.T.);
#295=LINE('',#296,#219);
#296=CARTESIAN_POINT('',(-0.4375,-0.125,2.E-02));
#297=FACE_BOUND('',#298,.F.);
#298=EDGE_LOOP('',(#299,#307,#313,#319));
#299=ORIENTED_EDGE('',*,*,#300,.T.);
#300=EDGE_CURVE('',#301,#303,#305,.T.);
#301=VERTEX_POINT('',#302);
#302=CARTESIAN_POINT('',(2.775557561563E-17,0.353553390593,2.E-02));
#303=VERTEX_POINT('',#304);
#304=CARTESIAN_POINT('',(0.353553390593,-2.775557561563E-17,2.E-02));
#305=LINE('',#306,#214);
#306=CARTESIAN_POINT('',(0.265165042945,8.838834764832E-02,2.E-02));
#307=ORIENTED_EDGE('',*,*,#308,.T.);
#308=EDGE_CURVE('',#303,#309,#311,.T.);
#309=VERTEX_POINT('',#310);
#310=CARTESIAN_POINT('',(-2.775557561563E-17,-0.353553390593,2.E-02));
#311=LINE('',#312,#233);
#312=CARTESIAN_POINT('',(-0.161611652352,-0.515165042945,2.E-02));
#313=ORIENTED_EDGE('',*,*,#314,.T.);
#314=EDGE_CURVE('',#309,#315,#317,.T.);
#315=VERTEX_POINT('',#316);
#316=CARTESIAN_POINT('',(-0.353553390593,2.775557561563E-17,2.E-02));
#317=LINE('',#318,#267);
#318=CARTESIAN_POINT('',(-0.265165042945,-8.838834764832E-02,2.E-02));
#319=ORIENTED_EDGE('',*,*,#320,.T.);
#320=EDGE_CURVE('',#315,#301,#321,.T.);
#321=LINE('',#322,#285);
#322=CARTESIAN_POINT('',(-0.338388347648,1.516504294496E-02,2.E-02));
#323=PLANE('',#324);
#324=AXIS2_PLACEMENT_3D('',#23,#13,#45);
#325=ADVANCED_FACE('',(#326),#340,.F.);
#326=FACE_BOUND('',#327,.F.);
#327=EDGE_LOOP('',(#328,#331,#332,#333,#334,#337));
#328=ORIENTED_EDGE('',*,*,#329,.T.);
#329=EDGE_CURVE('',#330,#51,#106,.T.);
#330=VERTEX_POINT('',#107);
#331=ORIENTED_EDGE('',*,*,#105,.T.);
#332=ORIENTED_EDGE('',*,*,#100,.T.);
#333=ORIENTED_EDGE('',*,*,#94,.F.);
#334=ORIENTED_EDGE('',*,*,#335,.F.);
#335=EDGE_CURVE('',#336,#91,#97,.T.);
#336=VERTEX_POINT('',#98);
#337=ORIENTED_EDGE('',*,*,#338,.F.);
#338=EDGE_CURVE('',#330,#336,#339,.T.);
#339=LINE('',#107,#54);
#340=PLANE('',#341);
#341=AXIS2_PLACEMENT_3D('',#107,#34,#45);
#342=ADVANCED_FACE('',(#343),#354,.T.);
#343=FACE_BOUND('',#344,.T.);
#344=EDGE_LOOP('',(#345,#70,#76,#83,#348,#351));
#345=ORIENTED_EDGE('',*,*,#346,.T.);
#346=EDGE_CURVE('',#347,#68,#74,.T.);
#347=VERTEX_POINT('',#75);
#348=ORIENTED_EDGE('',*,*,#349,.F.);
#349=EDGE_CURVE('',#350,#85,#87,.T.);
#350=VERTEX_POINT('',#88);
#351=ORIENTED_EDGE('',*,*,#352,.F.);
#352=EDGE_CURVE('',#347,#350,#353,.T.);
#353=LINE('',#75,#81);
#354=PLANE('',#355);
#355=AXIS2_PLACEMENT_3D('',#75,#220,#82);
#356=ADVANCED_FACE('',(#357),#361,.T.);
#357=FACE_BOUND('',#358,.T.);
#358=EDGE_LOOP('',(#61,#246,#359,#360));
#359=ORIENTED_EDGE('',*,*,#142,.T.);
#360=ORIENTED_EDGE('',*,*,#114,.F.);
#361=PLANE('',#362);
#362=AXIS2_PLACEMENT_3D('',#64,#45,#13);
#363=ADVANCED_FACE('',(#364),#367,.T.);
#364=FACE_BOUND('',#365,.T.);
#365=EDGE_LOOP('',(#366));
#366=ORIENTED_EDGE('',*,*,#124,.T.);
#367=PLANE('',#368);
#368=AXIS2_PLACEMENT_3D('',#129,#13,#14);
#369=ADVANCED_FACE('',(#370),#384,.T.);
#370=FACE_BOUND('',#371,.T.);
#371=EDGE_LOOP('',(#372,#375,#376,#377,#378,#381));
#372=ORIENTED_EDGE('',*,*,#373,.T.);
#373=EDGE_CURVE('',#374,#137,#184,.T.);
#374=VERTEX_POINT('',#185);
#375=ORIENTED_EDGE('',*,*,#183,.T.);
#376=ORIENTED_EDGE('',*,*,#178,.T.);
#377=ORIENTED_EDGE('',*,*,#172,.F.);
#378=ORIENTED_EDGE('',*,*,#379,.F.);
#379=EDGE_CURVE('',#380,#169,#175,.T.);
#380=VERTEX_POINT('',#176);
#381=ORIENTED_EDGE('',*,*,#382,.F.);
#382=EDGE_CURVE('',#374,#380,#383,.T.);
#383=LINE('',#185,#54);
#384=PLANE('',#385);
#385=AXIS2_PLACEMENT_3D('',#185,#34,#45);
#386=ADVANCED_FACE('',(#387),#398,.F.);
#387=FACE_BOUND('',#388,.F.);
#388=EDGE_LOOP('',(#389,#150,#156,#161,#392,#395));
#389=ORIENTED_EDGE('',*,*,#390,.T.);
#390=EDGE_CURVE('',#391,#148,#154,.T.);
#391=VERTEX_POINT('',#155);
#392=ORIENTED_EDGE('',*,*,#393,.F.);
#393=EDGE_CURVE('',#394,#163,#165,.T.);
#394=VERTEX_POINT('',#166);
#395=ORIENTED_EDGE('',*,*,#396,.F.);
#396=EDGE_CURVE('',#391,#394,#397,.T.);
#397=LINE('',#155,#81);
#398=PLANE('',#399);
#399=AXIS2_PLACEMENT_3D('',#155,#220,#82);
#400=ADVANCED_FACE('',(#401),#412,.T.);
#401=FACE_BOUND('',#402,.T.);
#402=EDGE_LOOP('',(#403,#408,#293,#411));
#403=ORIENTED_EDGE('',*,*,#404,.F.);
#404=EDGE_CURVE('',#405,#374,#407,.T.);
#405=VERTEX_POINT('',#406);
#406=CARTESIAN_POINT('',(-0.4375,0.25,0.));
#407=LINE('',#406,#33);
#408=ORIENTED_EDGE('',*,*,#409,.T.);
#409=EDGE_CURVE('',#405,#289,#410,.T.);
#410=LINE('',#406,#27);
#411=ORIENTED_EDGE('',*,*,#373,.F.);
#412=PLANE('',#413);
#413=AXIS2_PLACEMENT_3D('',#406,#82,#34);
#414=ADVANCED_FACE('',(#415),#426,.T.);
#415=FACE_BOUND('',#416,.T.);
#416=EDGE_LOOP('',(#417,#422,#287,#425));
#417=ORIENTED_EDGE('',*,*,#418,.F.);
#418=EDGE_CURVE('',#419,#405,#421,.T.);
#419=VERTEX_POINT('',#420);
#420=CARTESIAN_POINT('',(-0.3925,0.25,0.));
#421=LINE('',#420,#81);
#422=ORIENTED_EDGE('',*,*,#423,.T.);
#423=EDGE_CURVE('',#419,#281,#424,.T.);
#424=LINE('',#420,#27);
#425=ORIENTED_EDGE('',*,*,#409,.F.);
#426=PLANE('',#427);
#427=AXIS2_PLACEMENT_3D('',#420,#220,#82);
#428=ADVANCED_FACE('',(#429),#441,.F.);
#429=FACE_BOUND('',#430,.F.);
#430=EDGE_LOOP('',(#431,#436,#439,#440));
#431=ORIENTED_EDGE('',*,*,#432,.F.);
#432=EDGE_CURVE('',#433,#330,#435,.T.);
#433=VERTEX_POINT('',#434);
#434=CARTESIAN_POINT('',(-0.4375,-0.25,0.));
#435=LINE('',#434,#219);
#436=ORIENTED_EDGE('',*,*,#437,.T.);
#437=EDGE_CURVE('',#433,#195,#438,.T.);
#438=LINE('',#434,#27);
#439=ORIENTED_EDGE('',*,*,#194,.F.);
#440=ORIENTED_EDGE('',*,*,#329,.F.);
#441=PLANE('',#442);
#442=AXIS2_PLACEMENT_3D('',#434,#14,#220);
#443=ADVANCED_FACE('',(#444),#455,.T.);
#444=FACE_BOUND('',#445,.T.);
#445=EDGE_LOOP('',(#446,#451,#279,#454));
#446=ORIENTED_EDGE('',*,*,#447,.F.);
#447=EDGE_CURVE('',#448,#419,#450,.T.);
#448=VERTEX_POINT('',#449);
#449=CARTESIAN_POINT('',(-0.2125,0.43,0.));
#450=LINE('',#449,#233);
#451=ORIENTED_EDGE('',*,*,#452,.T.);
#452=EDGE_CURVE('',#448,#275,#453,.T.);
#453=LINE('',#449,#27);
#454=ORIENTED_EDGE('',*,*,#423,.F.);
#455=PLANE('',#456);
#456=AXIS2_PLACEMENT_3D('',#449,#215,#234);
#457=ADVANCED_FACE('',(#458),#470,.F.);
#458=FACE_BOUND('',#459,.F.);
#459=EDGE_LOOP('',(#460,#465,#468,#469));
#460=ORIENTED_EDGE('',*,*,#461,.F.);
#461=EDGE_CURVE('',#462,#433,#464,.T.);
#462=VERTEX_POINT('',#463);
#463=CARTESIAN_POINT('',(-0.3925,-0.25,0.));
#464=LINE('',#463,#81);
#465=ORIENTED_EDGE('',*,*,#466,.T.);
#466=EDGE_CURVE('',#462,#203,#467,.T.);
#467=LINE('',#463,#27);
#468=ORIENTED_EDGE('',*,*,#202,.F.);
#469=ORIENTED_EDGE('',*,*,#437,.F.);
#470=PLANE('',#471);
#471=AXIS2_PLACEMENT_3D('',#463,#220,#82);
#472=ADVANCED_FACE('',(#473),#480,.T.);
#473=FACE_BOUND('',#474,.T.);
#474=EDGE_LOOP('',(#475,#478,#273,#479));
#475=ORIENTED_EDGE('',*,*,#476,.F.);
#476=EDGE_CURVE('',#380,#448,#477,.T.);
#477=LINE('',#176,#219);
#478=ORIENTED_EDGE('',*,*,#379,.T.);
#479=ORIENTED_EDGE('',*,*,#452,.F.);
#480=PLANE('',#481);
#481=AXIS2_PLACEMENT_3D('',#176,#14,#220);
#482=ADVANCED_FACE('',(#483),#495,.F.);
#483=FACE_BOUND('',#484,.F.);
#484=EDGE_LOOP('',(#485,#490,#493,#494));
#485=ORIENTED_EDGE('',*,*,#486,.F.);
#486=EDGE_CURVE('',#487,#462,#489,.T.);
#487=VERTEX_POINT('',#488);
#488=CARTESIAN_POINT('',(-0.2125,-0.43,0.));
#489=LINE('',#488,#267);
#490=ORIENTED_EDGE('',*,*,#491,.T.);
#491=EDGE_CURVE('',#487,#210,#492,.T.);
#492=LINE('',#488,#27);
#493=ORIENTED_EDGE('',*,*,#209,.F.);
#494=ORIENTED_EDGE('',*,*,#466,.F.);
#495=PLANE('',#496);
#496=AXIS2_PLACEMENT_3D('',#488,#234,#268);
#497=ADVANCED_FACE('',(#498),#506,.F.);
#498=FACE_BOUND('',#499,.F.);
#499=EDGE_LOOP('',(#500,#503,#504,#505));
#500=ORIENTED_EDGE('',*,*,#501,.F.);
#501=EDGE_CURVE('',#336,#487,#502,.T.);
#502=LINE('',#98,#33);
#503=ORIENTED_EDGE('',*,*,#335,.T.);
#504=ORIENTED_EDGE('',*,*,#217,.F.);
#505=ORIENTED_EDGE('',*,*,#491,.F.);
#506=PLANE('',#507);
#507=AXIS2_PLACEMENT_3D('',#98,#82,#34);
#508=ADVANCED_FACE('',(#509),#521,.F.);
#509=FACE_BOUND('',#510,.F.);
#510=EDGE_LOOP('',(#511,#516,#517,#518));
#511=ORIENTED_EDGE('',*,*,#512,.F.);
#512=EDGE_CURVE('',#394,#513,#515,.T.);
#513=VERTEX_POINT('',#514);
#514=CARTESIAN_POINT('',(0.2125,0.43,0.));
#515=LINE('',#166,#219);
#516=ORIENTED_EDGE('',*,*,#393,.T.);
#517=ORIENTED_EDGE('',*,*,#270,.F.);
#518=ORIENTED_EDGE('',*,*,#519,.F.);
#519=EDGE_CURVE('',#513,#263,#520,.T.);
#520=LINE('',#514,#27);
#521=PLANE('',#522);
#522=AXIS2_PLACEMENT_3D('',#166,#14,#220);
#523=ADVANCED_FACE('',(#524),#536,.F.);
#524=FACE_BOUND('',#525,.F.);
#525=EDGE_LOOP('',(#526,#531,#532,#533));
#526=ORIENTED_EDGE('',*,*,#527,.F.);
#527=EDGE_CURVE('',#513,#528,#530,.T.);
#528=VERTEX_POINT('',#529);
#529=CARTESIAN_POINT('',(0.3925,0.25,0.));
#530=LINE('',#514,#214);
#531=ORIENTED_EDGE('',*,*,#519,.T.);
#532=ORIENTED_EDGE('',*,*,#262,.F.);
#533=ORIENTED_EDGE('',*,*,#534,.F.);
#534=EDGE_CURVE('',#528,#257,#535,.T.);
#535=LINE('',#529,#27);
#536=PLANE('',#537);
#537=AXIS2_PLACEMENT_3D('',#514,#286,#215);
#538=ADVANCED_FACE('',(#539),#550,.T.);
#539=FACE_BOUND('',#540,.T.);
#540=EDGE_LOOP('',(#541,#546,#222,#547));
#541=ORIENTED_EDGE('',*,*,#542,.F.);
#542=EDGE_CURVE('',#350,#543,#545,.T.);
#543=VERTEX_POINT('',#544);
#544=CARTESIAN_POINT('',(0.2125,-0.43,0.));
#545=LINE('',#88,#33);
#546=ORIENTED_EDGE('',*,*,#349,.T.);
#547=ORIENTED_EDGE('',*,*,#548,.F.);
#548=EDGE_CURVE('',#543,#224,#549,.T.);
#549=LINE('',#544,#27);
#550=PLANE('',#551);
#551=AXIS2_PLACEMENT_3D('',#88,#82,#34);
#552=ADVANCED_FACE('',(#553),#565,.F.);
#553=FACE_BOUND('',#554,.F.);
#554=EDGE_LOOP('',(#555,#560,#561,#562));
#555=ORIENTED_EDGE('',*,*,#556,.F.);
#556=EDGE_CURVE('',#528,#557,#559,.T.);
#557=VERTEX_POINT('',#558);
#558=CARTESIAN_POINT('',(0.4375,0.25,0.));
#559=LINE('',#529,#54);
#560=ORIENTED_EDGE('',*,*,#534,.T.);
#561=ORIENTED_EDGE('',*,*,#256,.F.);
#562=ORIENTED_EDGE('',*,*,#563,.F.);
#563=EDGE_CURVE('',#557,#251,#564,.T.);
#564=LINE('',#558,#27);
#565=PLANE('',#566);
#566=AXIS2_PLACEMENT_3D('',#529,#34,#45);
#567=ADVANCED_FACE('',(#568),#581,.T.);
#568=FACE_BOUND('',#569,.T.);
#569=EDGE_LOOP('',(#570,#577,#227,#578));
#570=ORIENTED_EDGE('',*,*,#571,.F.);
#571=EDGE_CURVE('',#543,#572,#574,.T.);
#572=VERTEX_POINT('',#573);
#573=CARTESIAN_POINT('',(0.3925,-0.25,0.));
#574=LINE('',#544,#575);
#575=VECTOR('',#576,1.);
#576=DIRECTION('',(0.707106781187,0.707106781187,0.));
#577=ORIENTED_EDGE('',*,*,#548,.T.);
#578=ORIENTED_EDGE('',*,*,#579,.F.);
#579=EDGE_CURVE('',#572,#229,#580,.T.);
#580=LINE('',#573,#27);
#581=PLANE('',#582);
#582=AXIS2_PLACEMENT_3D('',#544,#268,#576);
#583=ADVANCED_FACE('',(#584),#592,.F.);
#584=FACE_BOUND('',#585,.F.);
#585=EDGE_LOOP('',(#586,#589,#590,#591));
#586=ORIENTED_EDGE('',*,*,#587,.F.);
#587=EDGE_CURVE('',#557,#391,#588,.T.);
#588=LINE('',#558,#33);
#589=ORIENTED_EDGE('',*,*,#563,.T.);
#590=ORIENTED_EDGE('',*,*,#250,.F.);
#591=ORIENTED_EDGE('',*,*,#390,.F.);
#592=PLANE('',#593);
#593=AXIS2_PLACEMENT_3D('',#558,#82,#34);
#594=ADVANCED_FACE('',(#595),#606,.T.);
#595=FACE_BOUND('',#596,.T.);
#596=EDGE_LOOP('',(#597,#602,#235,#603));
#597=ORIENTED_EDGE('',*,*,#598,.F.);
#598=EDGE_CURVE('',#572,#599,#601,.T.);
#599=VERTEX_POINT('',#600);
#600=CARTESIAN_POINT('',(0.4375,-0.25,0.));
#601=LINE('',#573,#54);
#602=ORIENTED_EDGE('',*,*,#579,.T.);
#603=ORIENTED_EDGE('',*,*,#604,.F.);
#604=EDGE_CURVE('',#599,#237,#605,.T.);
#605=LINE('',#600,#27);
#606=PLANE('',#607);
#607=AXIS2_PLACEMENT_3D('',#573,#34,#45);
#608=ADVANCED_FACE('',(#609),#616,.T.);
#609=FACE_BOUND('',#610,.T.);
#610=EDGE_LOOP('',(#611,#614,#241,#615));
#611=ORIENTED_EDGE('',*,*,#612,.F.);
#612=EDGE_CURVE('',#599,#347,#613,.T.);
#613=LINE('',#600,#219);
#614=ORIENTED_EDGE('',*,*,#604,.T.);
#615=ORIENTED_EDGE('',*,*,#346,.F.);
#616=PLANE('',#617);
#617=AXIS2_PLACEMENT_3D('',#600,#14,#220);
#618=ADVANCED_FACE('',(#619),#635,.F.);
#619=FACE_BOUND('',#620,.F.);
#620=EDGE_LOOP('',(#621,#628,#631,#632));
#621=ORIENTED_EDGE('',*,*,#622,.F.);
#622=EDGE_CURVE('',#623,#625,#627,.T.);
#623=VERTEX_POINT('',#624);
#624=CARTESIAN_POINT('',(0.353553390593,-2.775557561563E-17,0.));
#625=VERTEX_POINT('',#626);
#626=CARTESIAN_POINT('',(2.775557561563E-17,0.353553390593,0.));
#627=LINE('',#624,#267);
#628=ORIENTED_EDGE('',*,*,#629,.T.);
#629=EDGE_CURVE('',#623,#303,#630,.T.);
#630=LINE('',#624,#27);
#631=ORIENTED_EDGE('',*,*,#300,.F.);
#632=ORIENTED_EDGE('',*,*,#633,.F.);
#633=EDGE_CURVE('',#625,#301,#634,.T.);
#634=LINE('',#626,#27);
#635=PLANE('',#636);
#636=AXIS2_PLACEMENT_3D('',#624,#234,#268);
#637=ADVANCED_FACE('',(#638),#650,.F.);
#638=FACE_BOUND('',#639,.F.);
#639=EDGE_LOOP('',(#640,#645,#646,#647));
#640=ORIENTED_EDGE('',*,*,#641,.F.);
#641=EDGE_CURVE('',#625,#642,#644,.T.);
#642=VERTEX_POINT('',#643);
#643=CARTESIAN_POINT('',(-0.353553390593,2.775557561563E-17,0.));
#644=LINE('',#626,#233);
#645=ORIENTED_EDGE('',*,*,#633,.T.);
#646=ORIENTED_EDGE('',*,*,#320,.F.);
#647=ORIENTED_EDGE('',*,*,#648,.F.);
#648=EDGE_CURVE('',#642,#315,#649,.T.);
#649=LINE('',#643,#27);
#650=PLANE('',#651);
#651=AXIS2_PLACEMENT_3D('',#626,#215,#234);
#652=ADVANCED_FACE('',(#653),#665,.F.);
#653=FACE_BOUND('',#654,.F.);
#654=EDGE_LOOP('',(#655,#660,#661,#662));
#655=ORIENTED_EDGE('',*,*,#656,.F.);
#656=EDGE_CURVE('',#642,#657,#659,.T.);
#657=VERTEX_POINT('',#658);
#658=CARTESIAN_POINT('',(-2.775557561563E-17,-0.353553390593,0.));
#659=LINE('',#643,#214);
#660=ORIENTED_EDGE('',*,*,#648,.T.);
#661=ORIENTED_EDGE('',*,*,#314,.F.);
#662=ORIENTED_EDGE('',*,*,#663,.F.);
#663=EDGE_CURVE('',#657,#309,#664,.T.);
#664=LINE('',#658,#27);
#665=PLANE('',#666);
#666=AXIS2_PLACEMENT_3D('',#643,#576,#215);
#667=ADVANCED_FACE('',(#668),#676,.F.);
#668=FACE_BOUND('',#669,.F.);
#669=EDGE_LOOP('',(#670,#673,#674,#675));
#670=ORIENTED_EDGE('',*,*,#671,.F.);
#671=EDGE_CURVE('',#657,#623,#672,.T.);
#672=LINE('',#658,#575);
#673=ORIENTED_EDGE('',*,*,#663,.T.);
#674=ORIENTED_EDGE('',*,*,#308,.F.);
#675=ORIENTED_EDGE('',*,*,#629,.F.);
#676=PLANE('',#677);
#677=AXIS2_PLACEMENT_3D('',#658,#268,#576);
#678=ADVANCED_FACE('',(#679),#686,.F.);
#679=FACE_BOUND('',#680,.F.);
#680=EDGE_LOOP('',(#681,#682,#683,#684,#685));
#681=ORIENTED_EDGE('',*,*,#338,.T.);
#682=ORIENTED_EDGE('',*,*,#501,.T.);
#683=ORIENTED_EDGE('',*,*,#486,.T.);
#684=ORIENTED_EDGE('',*,*,#461,.T.);
#685=ORIENTED_EDGE('',*,*,#432,.T.);
#686=PLANE('',#687);
#687=AXIS2_PLACEMENT_3D('',#688,#13,#14);
#688=CARTESIAN_POINT('',(-0.346990704451,-0.398551306323,0.));
#689=ADVANCED_FACE('',(#690),#697,.T.);
#690=FACE_BOUND('',#691,.T.);
#691=EDGE_LOOP('',(#692,#693,#694,#695,#696));
#692=ORIENTED_EDGE('',*,*,#352,.T.);
#693=ORIENTED_EDGE('',*,*,#542,.T.);
#694=ORIENTED_EDGE('',*,*,#571,.T.);
#695=ORIENTED_EDGE('',*,*,#598,.T.);
#696=ORIENTED_EDGE('',*,*,#612,.T.);
#697=PLANE('',#698);
#698=AXIS2_PLACEMENT_3D('',#699,#700,#82);
#699=CARTESIAN_POINT('',(0.346990704451,-0.398551306323,0.));
#700=DIRECTION('',(-0.,-0.,-1.));
#701=ADVANCED_FACE('',(#702),#709,.T.);
#702=FACE_BOUND('',#703,.T.);
#703=EDGE_LOOP('',(#704,#705,#706,#707,#708));
#704=ORIENTED_EDGE('',*,*,#382,.T.);
#705=ORIENTED_EDGE('',*,*,#476,.T.);
#706=ORIENTED_EDGE('',*,*,#447,.T.);
#707=ORIENTED_EDGE('',*,*,#418,.T.);
#708=ORIENTED_EDGE('',*,*,#404,.T.);
#709=PLANE('',#710);
#710=AXIS2_PLACEMENT_3D('',#711,#700,#82);
#711=CARTESIAN_POINT('',(-0.346990704451,0.398551306323,0.));
#712=ADVANCED_FACE('',(#713),#720,.F.);
#713=FACE_BOUND('',#714,.F.);
#714=EDGE_LOOP('',(#715,#716,#717,#718,#719));
#715=ORIENTED_EDGE('',*,*,#396,.T.);
#716=ORIENTED_EDGE('',*,*,#512,.T.);
#717=ORIENTED_EDGE('',*,*,#527,.T.);
#718=ORIENTED_EDGE('',*,*,#556,.T.);
#719=ORIENTED_EDGE('',*,*,#587,.T.);
#720=PLANE('',#721);
#721=AXIS2_PLACEMENT_3D('',#722,#13,#14);
#722=CARTESIAN_POINT('',(0.346990704451,0.398551306323,0.));
#723=ADVANCED_FACE('',(#724),#730,.F.);
#724=FACE_BOUND('',#725,.F.);
#725=EDGE_LOOP('',(#726,#727,#728,#729));
#726=ORIENTED_EDGE('',*,*,#671,.T.);
#727=ORIENTED_EDGE('',*,*,#622,.T.);
#728=ORIENTED_EDGE('',*,*,#641,.T.);
#729=ORIENTED_EDGE('',*,*,#656,.T.);
#730=PLANE('',#731);
#731=AXIS2_PLACEMENT_3D('',#12,#13,#576);
#732=( GEOMETRIC_REPRESENTATION_CONTEXT(3) GLOBAL_UNCERTAINTY_ASSIGNED_CONTEXT((#736)) GLOBAL_UNIT_ASSIGNED_CONTEXT((#733,#734,#735)) REPRESENTATION_CONTEXT('Context #1','3D Context with UNIT and UNCERTAINTY') );
#733=( LENGTH_UNIT() NAMED_UNIT(*) SI_UNIT(.MILLI.,.METRE.) );
#734=( NAMED_UNIT(*) PLANE_ANGLE_UNIT() SI_UNIT($,.RADIAN.) );
#735=( NAMED_UNIT(*) SI_UNIT($,.STERADIAN.) SOLID_ANGLE_UNIT() );
#736=UNCERTAINTY_MEASURE_WITH_UNIT(LENGTH_MEASURE(1.E-07),#733,'distance_accuracy_value','confusion accuracy');
#737=PRODUCT_RELATED_PRODUCT_CATEGORY('part',$,(#7));
#738=MECHANICAL_DESIGN_GEOMETRIC_PRESENTATION_REPRESENTATION('',(#739,#749,#750,#751,#752,#753,#762,#763,#764,#765,#766,#767,#768,#777,#778,#779,#780,#781,#782,#783,#784,#785,#786,#787,#788,#789,#790,#791,#792,#793,#794,#795,#796,#797,#798,#799,#800,#801,#802,#803),#732);
#739=STYLED_ITEM('color',(#740),#17);
#740=PRESENTATION_STYLE_ASSIGNMENT((#741,#747));
#741=SURFACE_STYLE_USAGE(.BOTH.,#742);
#742=SURFACE_SIDE_STYLE('',(#743));
#743=SURFACE_STYLE_FILL_AREA(#744);
#744=FILL_AREA_STYLE('',(#745));
#745=FILL_AREA_STYLE_COLOUR('',#746);
#746=COLOUR_RGB('',0.147999998088,0.145000001626,0.145000001626);
#747=CURVE_STYLE('',#748,POSITIVE_LENGTH_MEASURE(0.1),#746);
#748=DRAUGHTING_PRE_DEFINED_CURVE_FONT('continuous');
#749=STYLED_ITEM('color',(#740),#46);
#750=STYLED_ITEM('color',(#740),#110);
#751=STYLED_ITEM('color',(#740),#132);
#752=STYLED_ITEM('color',(#740),#188);
#753=OVER_RIDING_STYLED_ITEM('overriding color',(#754),#300,#752);
#754=PRESENTATION_STYLE_ASSIGNMENT((#755,#761));
#755=SURFACE_STYLE_USAGE(.BOTH.,#756);
#756=SURFACE_SIDE_STYLE('',(#757));
#757=SURFACE_STYLE_FILL_AREA(#758);
#758=FILL_AREA_STYLE('',(#759));
#759=FILL_AREA_STYLE_COLOUR('',#760);
#760=COLOUR_RGB('',0.823999987314,0.819999987296,0.781000009244);
#761=CURVE_STYLE('',#748,POSITIVE_LENGTH_MEASURE(0.1),#760);
#762=OVER_RIDING_STYLED_ITEM('overriding color',(#754),#320,#752);
#763=OVER_RIDING_STYLED_ITEM('overriding color',(#754),#314,#752);
#764=OVER_RIDING_STYLED_ITEM('overriding color',(#754),#308,#752);
#765=STYLED_ITEM('color',(#754),#325);
#766=STYLED_ITEM('color',(#754),#342);
#767=STYLED_ITEM('color',(#740),#356);
#768=STYLED_ITEM('color',(#769),#363);
#769=PRESENTATION_STYLE_ASSIGNMENT((#770,#776));
#770=SURFACE_STYLE_USAGE(.BOTH.,#771);
#771=SURFACE_SIDE_STYLE('',(#772));
#772=SURFACE_STYLE_FILL_AREA(#773);
#773=FILL_AREA_STYLE('',(#774));
#774=FILL_AREA_STYLE_COLOUR('',#775);
#775=COLOUR_RGB('',0.690999998585,0.664000007176,0.597999987832);
#776=CURVE_STYLE('',#748,POSITIVE_LENGTH_MEASURE(0.1),#775);
#777=STYLED_ITEM('color',(#754),#369);
#778=STYLED_ITEM('color',(#754),#386);
#779=STYLED_ITEM('color',(#754),#400);
#780=STYLED_ITEM('color',(#754),#414);
#781=STYLED_ITEM('color',(#754),#428);
#782=STYLED_ITEM('color',(#754),#443);
#783=STYLED_ITEM('color',(#754),#457);
#784=STYLED_ITEM('color',(#754),#472);
#785=STYLED_ITEM('color',(#754),#482);
#786=STYLED_ITEM('color',(#754),#497);
#787=STYLED_ITEM('color',(#754),#508);
#788=STYLED_ITEM('color',(#754),#523);
#789=STYLED_ITEM('color',(#754),#538);
#790=STYLED_ITEM('color',(#754),#552);
#791=STYLED_ITEM('color',(#754),#567);
#792=STYLED_ITEM('color',(#754),#583);
#793=STYLED_ITEM('color',(#754),#594);
#794=STYLED_ITEM('color',(#754),#608);
#795=STYLED_ITEM('color',(#754),#618);
#796=STYLED_ITEM('color',(#754),#637);
#797=STYLED_ITEM('color',(#754),#652);
#798=STYLED_ITEM('color',(#754),#667);
#799=STYLED_ITEM('color',(#754),#678);
#800=STYLED_ITEM('color',(#754),#689);
#801=STYLED_ITEM('color',(#754),#701);
#802=STYLED_ITEM('color',(#754),#712);
#803=STYLED_ITEM('color',(#754),#723);
ENDSEC;
END-ISO-10303-21;
